# xmcd CD database file
#
# Track frame offsets:
#	150
#	15739
#	28874
#	46037
#	65918
#	90275
#	99620
#	113120
#	128052
#	148826
#
# Disc length: 2281 seconds
#
# Revision: 1
# Processed by: cddbd v1.5.1PL0 Copyright (c) Steve Scherf et al.
# Submitted via: jetAudio 5
#
DISCID=8408e70a
DTITLE=Kimmie Rhodes - Windblown
DYEAR=1900
DGENRE=
TTITLE0=windblown
TTITLE1=oh padre
TTITLE2=lost in you again
TTITLE3=that's my heart
TTITLE4=desert train
TTITLE5=laredo cantina
TTITLE6=little angelina
TTITLE7=el diablo gallo
TTITLE8=angelino
TTITLE9=clear blue sky
EXTD=
EXTT0=
EXTT1=
EXTT2=
EXTT3=
EXTT4=
EXTT5=
EXTT6=
EXTT7=
EXTT8=
EXTT9=
PLAYORDER=
